# xmcd CD database file
#
# Track frame offsets:
#	150
#	13977
#	29087
#	46755
#	65957
#	80932
#	103530
#	118805
#	137852
#	152940
#	174567
#	190200
#	207972
#	223627
#	241752
#	257702
#	273830
#	294215
#	311577
#	327737
#
# Disc length: 4661 seconds
#
# Revision: 9
# Processed by: cddbd v1.5.2PL0 Copyright (c) Steve Scherf et al.
# Submitted via: CDex 1.70beta2
#
DISCID=39123314
DTITLE=John Lennon - Lennon Legend - The Very Best Of John Lennon
DYEAR=1997
DGENRE=Pop-Rock
TTITLE0=Imagine
TTITLE1=Instant Karma!
TTITLE2=Mother (Single Edit)
TTITLE3=Jealous Guy
TTITLE4=Power To The People
TTITLE5=Cold Turkey
TTITLE6=Love
TTITLE7=Mind Games
TTITLE8=Whatever Gets You Through The Night
TTITLE9=#9 Dream
TTITLE10=Stand By Me
TTITLE11=(Just Like) Starting Over
TTITLE12=Woman
TTITLE13=Beautiful Boy (Darling Boy)
TTITLE14=Watching The Wheels
TTITLE15=Nobody Told Me
TTITLE16=Borrowed Time
TTITLE17=Working Class Hero
TTITLE18=Happy Christmas (War Is Over)
TTITLE19=Give Peace A Chance
EXTD=YEAR: 1997
EXTT0=
EXTT1=
EXTT2=
EXTT3=
EXTT4=
EXTT5=
EXTT6=
EXTT7=
EXTT8=
EXTT9=
EXTT10=
EXTT11=
EXTT12=
EXTT13=
EXTT14=
EXTT15=
EXTT16=
EXTT17=
EXTT18=
EXTT19=
PLAYORDER=
